<svg id="visual" viewBox="0 0 960 200" width="960" height="200" xmlns="http://www.w3.org/2000/svg" xmlns:xlink="http://www.w3.org/1999/xlink" version="1.1"><rect x="0" y="0" width="960" height="200" fill="#152747"></rect><path d="M0 94L22.8 96C45.7 98 91.3 102 137 102.3C182.7 102.7 228.3 99.3 274 96.2C319.7 93 365.3 90 411.2 92.3C457 94.7 503 102.3 548.8 99.3C594.7 96.3 640.3 82.7 686 81C731.7 79.3 777.3 89.7 823 90.8C868.7 92 914.3 84 937.2 80L960 76L960 201L937.2 201C914.3 201 868.7 201 823 201C777.3 201 731.7 201 686 201C640.3 201 594.7 201 548.8 201C503 201 457 201 411.2 201C365.3 201 319.7 201 274 201C228.3 201 182.7 201 137 201C91.3 201 45.7 201 22.8 201L0 201Z" fill="#152747"></path><path d="M0 139L22.8 137C45.7 135 91.3 131 137 122.8C182.7 114.7 228.3 102.3 274 99.3C319.7 96.3 365.3 102.7 411.2 104.2C457 105.7 503 102.3 548.8 99.5C594.7 96.7 640.3 94.3 686 95C731.7 95.7 777.3 99.3 823 102C868.7 104.7 914.3 106.3 937.2 107.2L960 108L960 201L937.2 201C914.3 201 868.7 201 823 201C777.3 201 731.7 201 686 201C640.3 201 594.7 201 548.8 201C503 201 457 201 411.2 201C365.3 201 319.7 201 274 201C228.3 201 182.7 201 137 201C91.3 201 45.7 201 22.8 201L0 201Z" fill="#311e3b"></path><path d="M0 122L22.8 124.3C45.7 126.7 91.3 131.3 137 133.2C182.7 135 228.3 134 274 136.2C319.7 138.3 365.3 143.7 411.2 144.8C457 146 503 143 548.8 136.8C594.7 130.7 640.3 121.3 686 119.5C731.7 117.7 777.3 123.3 823 128.3C868.7 133.3 914.3 137.7 937.2 139.8L960 142L960 201L937.2 201C914.3 201 868.7 201 823 201C777.3 201 731.7 201 686 201C640.3 201 594.7 201 548.8 201C503 201 457 201 411.2 201C365.3 201 319.7 201 274 201C228.3 201 182.7 201 137 201C91.3 201 45.7 201 22.8 201L0 201Z" fill="#3c1629"></path><path d="M0 142L22.8 145.7C45.7 149.3 91.3 156.7 137 156.5C182.7 156.3 228.3 148.7 274 147.3C319.7 146 365.3 151 411.2 151.2C457 151.3 503 146.7 548.8 147.7C594.7 148.7 640.3 155.3 686 158.2C731.7 161 777.3 160 823 161.3C868.7 162.7 914.3 166.3 937.2 168.2L960 170L960 201L937.2 201C914.3 201 868.7 201 823 201C777.3 201 731.7 201 686 201C640.3 201 594.7 201 548.8 201C503 201 457 201 411.2 201C365.3 201 319.7 201 274 201C228.3 201 182.7 201 137 201C91.3 201 45.7 201 22.8 201L0 201Z" fill="#3c1416"></path><path d="M0 187L22.8 186.5C45.7 186 91.3 185 137 184.2C182.7 183.3 228.3 182.7 274 180.2C319.7 177.7 365.3 173.3 411.2 170.2C457 167 503 165 548.8 164.8C594.7 164.7 640.3 166.3 686 167.2C731.7 168 777.3 168 823 171.3C868.7 174.7 914.3 181.3 937.2 184.7L960 188L960 201L937.2 201C914.3 201 868.7 201 823 201C777.3 201 731.7 201 686 201C640.3 201 594.7 201 548.8 201C503 201 457 201 411.2 201C365.3 201 319.7 201 274 201C228.3 201 182.7 201 137 201C91.3 201 45.7 201 22.8 201L0 201Z" fill="#331800"></path></svg>