<svg xmlns="http://www.w3.org/2000/svg" height="444.283" width="942.1" xml:space="preserve">
  <defs>
      <clipPath id="a" clipPathUnits="userSpaceOnUse">
          <path d="M0 333.212h706.575V0H0Z"/>
      </clipPath>
  </defs>
  <g clip-path="url(#a)" transform="matrix(1.33333 0 0 -1.33333 0 444.283)">
      <path style="fill:#7f8082;fill-opacity:1;fill-rule:nonzero;stroke:none" d="M0 0h9.799v-5.121h.148c2.707 3.877 6.66 6.144 11.559 6.144 4.755 0 8.996-1.761 11.047-6.285 2.19 3.287 6.144 6.285 11.403 6.285 8.045 0 13.829-3.722 13.829-13.533v-25.303H47.398v21.426c0 5.047-.434 9.223-6.362 9.223-5.849 0-6.953-4.828-6.953-9.59v-21.059H23.697v21.211c0 4.383.297 9.438-6.291 9.438-2.043 0-7.017-1.322-7.017-8.703v-21.946H0Z" transform="translate(178.59 138.169)"/>
      <path style="fill:#7f8082;fill-opacity:1;fill-rule:nonzero;stroke:none" d="M0 0c-1.753-1.539-5.416-1.617-8.633-2.203-3.217-.656-6.142-1.744-6.142-5.557 0-3.873 3.001-4.824 6.362-4.824C-.293-12.584 0-6.145 0-3.877zm-23.991 7.674c.587 9.724 9.286 12.656 17.773 12.656 7.532 0 16.603-1.676 16.603-10.75v-19.676c0-3.439.365-6.875 1.315-8.41H1.17c-.367 1.168-.661 2.412-.732 3.652-3.288-3.439-8.12-4.679-12.725-4.679-7.169 0-12.874 3.584-12.874 11.336 0 8.558 6.436 10.607 12.874 11.484C-5.928 4.242 0 4.021 0 8.262c0 4.465-3.075 5.121-6.73 5.121-3.949 0-6.516-1.612-6.872-5.709z" transform="translate(268.122 118.862)"/>
      <path style="fill:#7f8082;fill-opacity:1;fill-rule:nonzero;stroke:none" d="M0 0c.074-4.541 3.875-6.367 7.976-6.367 2.997 0 6.805 1.17 6.805 4.824 0 3.147-4.317 4.25-11.783 5.854-5.995 1.316-11.99 3.437-11.99 10.095 0 9.658 8.335 12.141 16.455 12.141 8.267 0 15.872-2.779 16.674-12.068H14.26c-.285 4.029-3.365 5.121-7.086 5.121-2.345 0-5.784-.442-5.784-3.506 0-3.731 5.85-4.246 11.778-5.635C19.241 9.066 25.165 6.875 25.165-.152c0-9.944-8.632-13.164-17.265-13.164C-.879-13.316-9.434-10.025-9.875 0z" transform="translate(295.596 112.645)"/>
      <path style="fill:#7f8082;fill-opacity:1;fill-rule:nonzero;stroke:none" d="M0 0h7.607v-6.949H0v-18.727c0-3.506.877-4.388 4.391-4.388 1.095 0 2.124.072 3.216.298v-8.121c-1.756-.297-4.018-.363-6.065-.363-6.37 0-11.927 1.457-11.927 8.992v22.309h-6.284V0h6.284v11.334H0z" transform="translate(341.035 138.169)"/>
      <path style="fill:#7f8082;fill-opacity:1;fill-rule:nonzero;stroke:none" d="M0 0c-.959 5.271-3.225 8.049-8.271 8.049-6.579 0-8.485-5.121-8.629-8.049Zm-16.9-6.578c.293-6.586 3.509-9.586 9.285-9.586 4.172 0 7.537 2.559 8.195 4.902h9.145C6.797-20.188.58-23.99-7.979-23.99c-11.923 0-19.307 8.189-19.307 19.894 0 11.342 7.823 19.969 19.307 19.969 12.875 0 19.092-10.82 18.356-22.451z" transform="translate(381.507 123.32)"/>
      <path style="fill:#7f8082;fill-opacity:1;fill-rule:nonzero;stroke:none" d="M0 0h9.877v-7.016h.141c1.91 4.75 7.023 8.039 12.072 8.039.728 0 1.603-.15 2.265-.369v-9.65c-.951.223-2.486.361-3.734.361-7.603 0-10.232-5.478-10.232-12.138v-17.04H0Z" transform="translate(399.882 138.169)"/>
      <path style="fill:#7f8082;fill-opacity:1;fill-rule:nonzero;stroke:none" d="M0 0h7.539v-5.488H0v-23.475c0-2.861.801-3.367 4.684-3.367h2.855v-5.483H2.785c-6.437 0-9 1.317-9 8.266v24.059h-6.437V0h6.437v11.334H0Z" transform="translate(444.4 138.169)"/>
      <path style="fill:#7f8082;fill-opacity:1;fill-rule:nonzero;stroke:none" d="M0 0h5.848v-7.971h.146C8.988-1.908 13.164 1.1 19.891.873v-6.58c-10.018 0-13.676-5.707-13.676-15.285v-16.821H0Z" transform="translate(458.595 138.169)"/>
      <path style="fill:#7f8082;fill-opacity:1;fill-rule:nonzero;stroke:none" d="M0 0c6.508 0 11.773 5.121 11.773 14.264C11.773 23.482 6.508 28.6 0 28.6c-6.512 0-11.779-5.118-11.779-14.336C-11.779 5.121-6.512 0 0 0m0 34.082c11.994 0 18.352-8.695 18.352-19.818 0-11.047-6.358-19.75-18.352-19.75-12.002 0-18.365 8.703-18.365 19.75 0 11.123 6.363 19.818 18.365 19.818" transform="translate(498.165 104.96)"/>
      <path style="fill:#7f8082;fill-opacity:1;fill-rule:nonzero;stroke:none" d="M0 0h5.854v-5.998h.144C8.631-1.32 12.877.873 18.281.873c9.948 0 13.024-5.701 13.024-13.812v-24.874H25.09v25.594c0 4.615-2.928 7.61-7.686 7.61-7.527 0-11.187-5.047-11.187-11.848v-21.356H0Z" transform="translate(523.835 138.169)"/>
      <path style="fill:#7f8082;fill-opacity:1;fill-rule:nonzero;stroke:none" d="M564.87 138.169h6.219v-37.813h-6.219zm6.219 6.809h-6.219v7.599h6.219z"/>
      <path style="fill:#7f8082;fill-opacity:1;fill-rule:nonzero;stroke:none" d="M0 0c-.953 4.756-4.244 7.529-9.363 7.529-8.996 0-11.776-7.09-11.776-14.775 0-6.945 3.145-13.824 11.043-13.824 6 0 9.58 3.513 10.387 9.222h6.363C5.266-21.07-.516-26.557-10.018-26.557c-11.558 0-17.701 8.045-17.701 19.311 0 11.336 5.846 20.258 17.842 20.258C-1.322 13.012 5.559 8.99 6.434 0Z" transform="translate(606.415 126.03)"/>
      <path style="fill:#7f8082;fill-opacity:1;fill-rule:nonzero;stroke:none" d="M0 0c.219-5.557 5.049-7.313 10.166-7.313 3.879 0 9.145.879 9.145 5.639 0 4.82-6.143 5.627-12.362 7.016C.811 6.73-5.412 8.785-5.412 16.016c0 7.615 7.533 10.754 14.119 10.754 8.336 0 14.996-2.629 15.508-11.84h-6.219c-.441 4.824-4.687 6.357-8.781 6.357-3.721 0-8.045-1.017-8.045-4.82 0-4.465 6.586-5.196 12.365-6.59 6.211-1.389 12.361-3.432 12.361-10.75 0-9-8.412-11.926-16.093-11.926C1.322-12.799-5.85-9.359-6.211 0z" transform="translate(623.821 112.272)"/>
      <path style="fill:#7f8082;fill-opacity:1;fill-rule:nonzero;stroke:none" d="M0 0c-24.144-.025-36.714-12.283-46.823-27.506-.714-1.076-73.875-106.213-73.875-106.213h79.535l53.728 76.44c7.433 10.675 15.601 16.584 28.029 18.207.026.023 1.567.187 1.59.193L15.032 0Z" transform="translate(177.555 276.304)"/>
      <path style="fill:#dede44;fill-opacity:1;fill-rule:nonzero;stroke:none" d="m0 0-7.71-.006c-7.9 0-14.541 4.293-17.873 8.565l-31.424 44.97h-32.351l27.111-38.834L-46.94-7.18c4.98-7.006 14.958-11.681 25.345-11.681h8.44z" transform="translate(281.945 222.774)"/>
      <path style="fill:#7f8082;fill-opacity:1;fill-rule:nonzero;stroke:none" d="M0 0c-6.143 8.643-19.769 20.043-39.469 20.043h-51.544l-17.834-25.541-13.041-18.699h49.819c5.466 0 23.181-1.08 35.282-21.836l5.07-7.238 7.807-11.142h69.058z" transform="translate(390.678 228.11)"/>
      <path style="fill:#7f8082;fill-opacity:1;fill-rule:nonzero;stroke:none" d="M0 0c-.215.215-.532.371-.952.469a6.878 6.878 0 0 1-1.478.19c-1.445 0-2.557-.577-3.338-1.728-.673-1.005-1.009-2.264-1.009-3.777 0-1.395.268-2.532.805-3.41.643-1.073 1.624-1.611 2.942-1.611 1.044 0 2.001.274 2.869.82.098.088.151.147.161.176Zm1.259 9.72a.497.497 0 0 0 .147.029h.863c.107 0 .161-.049.161-.146V-9.983c0-.098.049-.148.146-.148l2.152-.233c.107 0 .162-.054.162-.161v-.688c0-.089-.045-.137-.133-.146l-4.465-.293c-.087-.01-.136.039-.146.146l-.087 1.405c-1.435-1.162-2.894-1.742-4.377-1.742-1.591 0-2.87.65-3.835 1.947-.879 1.181-1.318 2.582-1.318 4.202 0 2.185.659 4.006 1.976 5.46C-6.119 1.269-4.353 2.02-2.196 2.02c.606 0 1.337-.093 2.196-.278v6.002c0 .097-.054.146-.161.146l-2.327.234c-.108 0-.161.054-.161.161v.688c0 .098.044.147.131.147z" transform="translate(187.972 72.848)"/>
      <path style="fill:#7f8082;fill-opacity:1;fill-rule:nonzero;stroke:none" d="M0 0c-1.562 0-2.571-.87-3.03-2.606a8.566 8.566 0 0 1-.263-1.522h6.119C2.913-1.376 1.971 0 0 0m-3.323-5.3c.039-1.63.42-2.928 1.142-3.893.829-1.103 2.025-1.656 3.586-1.656 1.25 0 2.421.342 3.513 1.026.039.039.074.049.103.029a.576.576 0 0 1 .074-.088l.424-.732c.019-.087-.01-.156-.088-.205-1.708-1.142-3.435-1.712-5.182-1.712-1.952 0-3.489.604-4.611 1.815-1.103 1.171-1.655 2.737-1.655 4.698 0 2.011.538 3.705 1.611 5.08C-3.235.575-1.674 1.331.278 1.331c1.727 0 3.04-.492 3.938-1.478.868-.957 1.303-2.303 1.303-4.041 0-.312-.02-.633-.059-.965 0-.097-.049-.147-.146-.147Z" transform="translate(200.342 73.536)"/>
      <path style="fill:#7f8082;fill-opacity:1;fill-rule:nonzero;stroke:none" d="M0 0c.02.05.02.099 0 .147-.02.04-.059.059-.117.059l-1.566.175c-.079 0-.117.04-.117.118v.761c0 .097.048.146.146.146h4.831c.097 0 .146-.049.146-.146V.528c0-.097-.049-.147-.146-.147L1.522.206c-.049 0-.087-.029-.117-.088L-3.63-11.813c-.03-.058-.069-.087-.118-.087h-.688a.226.226 0 0 0-.131.087L-9.632.089c-.039.058-.078.088-.117.088l-1.742.204c-.078 0-.117.04-.117.118v.761c0 .097.048.146.146.146h6.236c.107 0 .161-.049.161-.146V.499c0-.078-.044-.118-.132-.118L-6.749.206c-.136 0-.175-.068-.116-.206l3.44-8.227z" transform="translate(218.845 73.037)"/>
      <path style="fill:#7f8082;fill-opacity:1;fill-rule:nonzero;stroke:none" d="M0 0c-1.562 0-2.571-.87-3.03-2.606a8.566 8.566 0 0 1-.263-1.522h6.119C2.913-1.376 1.971 0 0 0m-3.322-5.3c.038-1.63.419-2.928 1.141-3.893.829-1.103 2.025-1.656 3.586-1.656 1.25 0 2.421.342 3.513 1.026.04.039.074.049.103.029a.63.63 0 0 1 .073-.088l.425-.732c.019-.087-.01-.156-.088-.205-1.708-1.142-3.435-1.712-5.182-1.712-1.952 0-3.489.604-4.611 1.815-1.103 1.171-1.655 2.737-1.655 4.698 0 2.011.537 3.705 1.611 5.08C-3.235.575-1.673 1.331.278 1.331c1.728 0 3.04-.492 3.938-1.478.868-.957 1.303-2.303 1.303-4.041 0-.312-.019-.633-.059-.965 0-.097-.049-.147-.146-.147Z" transform="translate(229.326 73.536)"/>
      <path style="fill:#7f8082;fill-opacity:1;fill-rule:nonzero;stroke:none" d="M0 0c0 .097-.049.146-.146.146l-2.343.249c-.097 0-.146.048-.146.146v.688c.03.098.068.147.117.147l3.777.6a.491.491 0 0 0 .146.029h.879c.097 0 .146-.049.146-.147v-19.615c0-.088.049-.138.146-.147l2.372-.204c.097-.01.146-.064.146-.162v-.747c0-.096-.049-.145-.146-.145h-7.437c-.097 0-.146.049-.146.145v.747c0 .108.049.162.146.162l2.343.204c.097 0 .146.049.146.147z" transform="translate(239.28 80.592)"/>
      <path style="fill:#7f8082;fill-opacity:1;fill-rule:nonzero;stroke:none" d="M0 0c-1.298 0-2.26-.548-2.884-1.641-.498-.868-.747-2.001-.747-3.395 0-2.801.752-4.7 2.255-5.694.546-.362 1.205-.542 1.976-.542 2.411 0 3.616 1.693 3.616 5.08 0 1.668-.283 3.039-.849 4.113C2.645-.694 1.522 0 0 0m.38 1.302c2.108 0 3.738-.614 4.89-1.845 1.122-1.2 1.683-2.863 1.683-4.991 0-2.04-.605-3.713-1.815-5.022-1.249-1.336-2.884-2.005-4.904-2.005-2.088 0-3.713.624-4.875 1.874-1.142 1.21-1.713 2.865-1.713 4.962 0 2.07.601 3.748 1.801 5.037C-3.313.64-1.669 1.302.38 1.302" transform="translate(252.001 73.565)"/>
      <path style="fill:#7f8082;fill-opacity:1;fill-rule:nonzero;stroke:none" d="M0 0c.449-.449 1.259-.674 2.43-.674 2.088 0 3.445 1.113 4.07 3.338.185.663.277 1.391.277 2.181 0 1.405-.268 2.542-.805 3.412C5.328 9.32 4.347 9.852 3.03 9.852a5.305 5.305 0 0 1-2.869-.806C.053 9.007 0 8.948 0 8.87Zm-1.172 11.681c.04.009.103.019.191.029h.835c.097 0 .146-.049.146-.146v-1.405c1.376 1.122 2.815 1.683 4.318 1.683 1.601 0 2.884-.643 3.85-1.933.878-1.161 1.317-2.566 1.317-4.215 0-2.215-.653-4.045-1.961-5.489-1.357-1.484-3.133-2.226-5.328-2.226-.606 0-1.338.093-2.196.28v-5.798c0-.097.053-.147.161-.147l2.298-.204c.107 0 .161-.049.161-.147v-.761c0-.098-.054-.146-.161-.146H-4.67c-.098 0-.146.048-.146.146v.761c0 .098.048.147.146.147l2.094.204c.097 0 .146.05.146.147V9.705c0 .098-.049.147-.146.147l-2.153.249c-.097 0-.146.048-.146.146v.688c.03.097.068.146.117.146z" transform="translate(265.117 63.025)"/>
      <path style="fill:#7f8082;fill-opacity:1;fill-rule:nonzero;stroke:none" d="M0 0c.468 0 .854-.148 1.156-.446.302-.298.454-.681.454-1.149 0-.468-.152-.852-.454-1.148C.854-3.041.468-3.191 0-3.191c-.468 0-.856.15-1.164.448-.307.296-.461.68-.461 1.148 0 .468.154.851.461 1.149C-.856-.148-.468 0 0 0m-3.293-20.332c-.108 0-.162.049-.162.145v.748c0 .107.054.161.162.161l2.093.204c.097 0 .146.049.146.147v9.896c0 .097-.049.146-.146.146l-2.167.249c-.097 0-.147.049-.147.147v.687c0 .098.04.147.118.147l3.601.599c.039.01.097.02.176.03h.848c.098 0 .147-.049.147-.146v-11.755c0-.098.049-.147.146-.147l1.947-.204c.108 0 .161-.054.161-.161v-.748c0-.096-.053-.145-.161-.145z" transform="translate(279.814 81.762)"/>
      <path style="fill:#7f8082;fill-opacity:1;fill-rule:nonzero;stroke:none" d="M0 0c.107.02.17.029.19.029h.835c.097 0 .146-.049.146-.145v-1.288C2.069-.692 3.172-.195 4.479.088c.4.088.839.133 1.318.133 2.576 0 3.865-1.45 3.865-4.348v-7.744c0-.099.048-.148.146-.148l1.947-.204c.097 0 .146-.053.146-.161v-.747c0-.097-.049-.145-.146-.145H5.197c-.108 0-.161.048-.161.145v.747c0 .108.053.161.161.161l1.888.204c.097 0 .146.049.146.148v6.865c0 1.073-.189 1.863-.571 2.371-.439.575-1.181.864-2.225.864-1.181 0-2.22-.229-3.117-.688-.079-.039-.128-.078-.147-.116v-9.296c0-.099.049-.148.147-.148l1.888-.204c.107 0 .161-.053.161-.161v-.747c0-.097-.054-.145-.161-.145h-6.705c-.107 0-.161.048-.161.145v.747c0 .108.054.161.161.161l2.094.204c.097 0 .146.049.146.148v9.895c0 .098-.049.147-.146.147l-2.152.249c-.108 0-.161.049-.161.146v.688c0 .098.038.146.117.146z" transform="translate(288.627 74.706)"/>
      <path style="fill:#7f8082;fill-opacity:1;fill-rule:nonzero;stroke:none" d="M0 0c1.044 0 1.757.59 2.137 1.771.137.429.206.981.206 1.654 0 2.45-.821 3.674-2.46 3.674-1.132 0-1.888-.611-2.269-1.83-.146-.467-.219-1.025-.219-1.668 0-1.241.282-2.187.849-2.84C-1.317.252-.731 0 0 0m-1.888-5.899c-.576-.099-1.078-.448-1.508-1.047-.429-.601-.644-1.202-.644-1.809 0-1.873 1.317-2.81 3.952-2.81 1.23 0 2.245.225 3.045.673.985.567 1.479 1.42 1.479 2.562 0 1.62-1.269 2.431-3.806 2.431zm-.205 4.947c-.702-.41-1.054-.863-1.054-1.361 0-.743.302-1.157.908-1.246a4.74 4.74 0 0 1 .687-.043H.776c1.308 0 2.279-.068 2.913-.206 1.093-.223 1.913-.692 2.459-1.403.342-.44.561-.972.659-1.597.039-.243.059-.463.059-.659 0-1.268-.454-2.351-1.362-3.249-.8-.791-1.854-1.366-3.161-1.727-.86-.235-1.801-.352-2.826-.352-1.513 0-2.786.234-3.82.703-1.386.624-2.079 1.605-2.079 2.943 0 .702.302 1.41.907 2.123.547.653 1.172 1.117 1.874 1.389a2.17 2.17 0 0 0-1.229.858 2.427 2.427 0 0 0-.469 1.456c0 1.005.736 1.951 2.21 2.839-1.414.888-2.122 2.201-2.122 3.937 0 1.426.517 2.607 1.551 3.544 1.005.917 2.226 1.375 3.66 1.375.761 0 1.474-.142 2.137-.424h4.377c.098 0 .147-.049.147-.146v-.761c0-.088-.049-.138-.147-.147l-2.649-.205c.761-.838 1.141-1.869 1.141-3.088 0-1.396-.5-2.555-1.5-3.477C2.505-.798 1.298-1.26-.117-1.26c-.741 0-1.401.104-1.976.308" transform="translate(308.08 66.495)"/>
      <path style="fill:#7f8082;fill-opacity:1;fill-rule:nonzero;stroke:none" d="M0 0c-1.561 0-2.572-.87-3.029-2.606a8.57 8.57 0 0 1-.264-1.522h6.119C2.913-1.376 1.972 0 0 0m-3.323-5.3c.039-1.63.42-2.928 1.142-3.893.83-1.103 2.026-1.656 3.587-1.656 1.249 0 2.42.342 3.513 1.026.039.039.073.049.102.029a.576.576 0 0 1 .074-.088l.424-.732c.02-.087-.01-.156-.088-.205-1.708-1.142-3.435-1.712-5.182-1.712-1.951 0-3.489.604-4.611 1.815-1.103 1.171-1.654 2.737-1.654 4.698 0 2.011.537 3.705 1.61 5.08C-3.235.575-1.673 1.331.278 1.331c1.728 0 3.04-.492 3.939-1.478.868-.957 1.302-2.303 1.302-4.041 0-.312-.019-.633-.059-.965 0-.097-.048-.147-.146-.147Z" transform="translate(329.818 73.536)"/>
      <path style="fill:#7f8082;fill-opacity:1;fill-rule:nonzero;stroke:none" d="M0 0c0 .097-.049.146-.146.146l-2.342.249c-.098 0-.147.048-.147.146v.688c.029.098.068.147.117.147l3.777.6a.491.491 0 0 0 .146.029h.879c.097 0 .146-.049.146-.147v-19.615c0-.088.049-.138.147-.147l2.371-.204c.098-.01.147-.064.147-.162v-.747c0-.096-.049-.145-.147-.145h-7.436c-.098 0-.147.049-.147.145v.747c0 .108.049.162.147.162l2.342.204c.097 0 .146.049.146.147z" transform="translate(339.773 80.592)"/>
      <path style="fill:#7f8082;fill-opacity:1;fill-rule:nonzero;stroke:none" d="M0 0c-1.561 0-2.572-.87-3.029-2.606a8.393 8.393 0 0 1-.264-1.522h6.119C2.913-1.376 1.971 0 0 0m-3.322-5.3c.039-1.63.419-2.928 1.141-3.893.829-1.103 2.026-1.656 3.587-1.656 1.248 0 2.419.342 3.513 1.026.038.039.073.049.102.029a.576.576 0 0 1 .074-.088l.425-.732c.019-.087-.01-.156-.088-.205-1.708-1.142-3.437-1.712-5.182-1.712-1.953 0-3.49.604-4.612 1.815-1.103 1.171-1.654 2.737-1.654 4.698 0 2.011.536 3.705 1.61 5.08C-3.235.575-1.674 1.331.279 1.331c1.726 0 3.039-.492 3.937-1.478.869-.957 1.304-2.303 1.304-4.041 0-.312-.02-.633-.059-.965 0-.097-.049-.147-.148-.147Z" transform="translate(352.157 73.536)"/>
      <path style="fill:#7f8082;fill-opacity:1;fill-rule:nonzero;stroke:none" d="M0 0c1.385 0 2.693-.233 3.923-.702.098-.039.147-.088.147-.147v-3.468c0-.089-.049-.133-.147-.133h-.937c-.097 0-.146.044-.146.133l-.484 2.268c0 .059-.039.121-.116.19-.841.39-1.621.586-2.343.586-1.288 0-2.313-.527-3.074-1.581-.683-.947-1.024-2.089-1.024-3.426 0-1.668.365-3.03 1.097-4.084.839-1.209 2.06-1.816 3.66-1.816 1.19 0 2.323.363 3.396 1.084.059.038.098.048.118.03a.405.405 0 0 0 .058-.088l.424-.733c.039-.068.01-.135-.087-.204-1.708-1.181-3.376-1.771-5.007-1.771-1.942 0-3.483.604-4.625 1.815C-6.3-10.866-6.865-9.3-6.865-7.349c0 2.05.624 3.779 1.873 5.183C-3.693-.722-2.03 0 0 0" transform="translate(366.767 74.867)"/>
      <path style="fill:#7f8082;fill-opacity:1;fill-rule:nonzero;stroke:none" d="M0 0c0 .097-.054.146-.162.146h-1.727c-.088 0-.132.043-.132.132v.147c0 .058.034.117.103.175l3.835 3.865c.088.088.166.132.234.132h.147c.087 0 .131-.054.131-.161V1.684c0-.098.05-.147.146-.147h3.983c.096 0 .145-.054.145-.161V.308c0-.109-.049-.162-.145-.162H2.575c-.096 0-.146-.049-.146-.146v-7.979c0-1.434.639-2.151 1.919-2.151.936 0 1.692.238 2.268.717a.156.156 0 0 0 .146.044.338.338 0 0 0 .102-.044l.382-.746c.02-.088-.01-.156-.089-.204-.77-.519-1.434-.87-1.99-1.055a7.224 7.224 0 0 0-2.27-.366c-.819 0-1.506.255-2.064.762C.278-10.516 0-9.857 0-9.047Z" transform="translate(374.613 72.79)"/>
      <path style="fill:#7f8082;fill-opacity:1;fill-rule:nonzero;stroke:none" d="M0 0c.303 0 .678-.093 1.127-.277.448-.186.78-.385.996-.601.029-.019.054-.059.073-.117.02-.059.01-.109-.029-.147L.688-3.249C.62-3.348.565-3.396.526-3.396a.095.095 0 0 0-.072.03c-.439.438-.922.659-1.45.659-.653 0-1.23-.289-1.726-.863l-.88-1.026a.472.472 0 0 1-.116-.323v-7.113c0-.088.049-.138.146-.148l2.547-.204c.107-.01.162-.063.162-.161v-.747c0-.097-.055-.146-.162-.146h-7.364c-.106 0-.16.049-.16.146v.747c0 .107.054.161.16.161l2.094.204c.098 0 .147.049.147.148v9.895c0 .098-.049.147-.147.147l-2.151.249c-.108 0-.161.049-.161.146v.688c0 .097.039.146.117.146l3.601.6c.108.019.17.029.19.029h.835c.097 0 .146-.049.146-.145V-3.06l1.595 1.86C-1.439-.4-.731 0 0 0" transform="translate(391.608 74.867)"/>
      <path style="fill:#7f8082;fill-opacity:1;fill-rule:nonzero;stroke:none" d="M0 0c-1.298 0-2.259-.548-2.884-1.641-.498-.868-.746-2.001-.746-3.395 0-2.801.751-4.7 2.254-5.694.546-.362 1.205-.542 1.976-.542 2.411 0 3.616 1.693 3.616 5.08 0 1.668-.283 3.039-.849 4.113C2.645-.694 1.522 0 0 0m.38 1.302c2.108 0 3.739-.614 4.891-1.845 1.121-1.2 1.682-2.863 1.682-4.991 0-2.04-.604-3.713-1.815-5.022-1.249-1.336-2.883-2.005-4.904-2.005-2.088 0-3.713.624-4.875 1.874-1.141 1.21-1.712 2.865-1.712 4.962 0 2.07.6 3.748 1.8 5.037C-3.313.64-1.669 1.302.38 1.302" transform="translate(400.991 73.565)"/>
      <path style="fill:#7f8082;fill-opacity:1;fill-rule:nonzero;stroke:none" d="M0 0c.107.02.171.029.19.029h.835c.097 0 .146-.049.146-.145v-1.288C2.069-.692 3.172-.195 4.479.088c.4.088.84.133 1.319.133 2.576 0 3.863-1.45 3.863-4.348v-7.744c0-.099.049-.148.148-.148l1.946-.204c.098 0 .146-.053.146-.161v-.747c0-.097-.048-.145-.146-.145H5.197c-.108 0-.161.048-.161.145v.747c0 .108.053.161.161.161l1.888.204c.098 0 .146.049.146.148v6.865c0 1.073-.19 1.863-.57 2.371-.439.575-1.181.864-2.224.864-1.182 0-2.221-.229-3.119-.688-.079-.039-.128-.078-.147-.116v-9.296c0-.099.05-.148.147-.148l1.888-.204c.107 0 .161-.053.161-.161v-.747c0-.097-.054-.145-.161-.145h-6.704c-.107 0-.161.048-.161.145v.747c0 .108.054.161.161.161l2.093.204c.098 0 .147.049.147.148v9.895c0 .098-.049.147-.147.147l-2.152.249c-.107 0-.161.049-.161.146v.688c0 .098.039.146.117.146z" transform="translate(413.419 74.706)"/>
      <path style="fill:#7f8082;fill-opacity:1;fill-rule:nonzero;stroke:none" d="M0 0c.469 0 .854-.148 1.157-.446.302-.298.454-.681.454-1.149 0-.468-.152-.852-.454-1.148C.854-3.041.469-3.191 0-3.191c-.468 0-.855.15-1.164.448-.307.296-.461.68-.461 1.148 0 .468.154.851.461 1.149C-.855-.148-.468 0 0 0m-3.292-20.332c-.108 0-.162.049-.162.145v.748c0 .107.054.161.162.161l2.093.204c.096 0 .146.049.146.147v9.896c0 .097-.05.146-.146.146l-2.167.249c-.098 0-.147.049-.147.147v.687c0 .098.039.147.117.147l3.601.599c.039.01.098.02.176.03h.849c.097 0 .146-.049.146-.146v-11.755c0-.098.049-.147.147-.147l1.947-.204c.107 0 .161-.054.161-.161v-.748c0-.096-.054-.145-.161-.145z" transform="translate(430.121 81.762)"/>
      <path style="fill:#7f8082;fill-opacity:1;fill-rule:nonzero;stroke:none" d="M0 0a10.91 10.91 0 0 0 3.924-.702c.097-.039.146-.088.146-.147v-3.468c0-.089-.049-.133-.146-.133h-.938c-.096 0-.145.044-.145.133l-.484 2.268c0 .059-.039.121-.117.19-.839.39-1.619.586-2.342.586-1.287 0-2.312-.527-3.074-1.581C-3.859-3.801-4.2-4.943-4.2-6.28c0-1.668.365-3.03 1.097-4.084.839-1.209 2.059-1.816 3.661-1.816 1.19 0 2.322.363 3.395 1.084.059.038.097.048.117.03a.443.443 0 0 0 .059-.088l.425-.733c.039-.068.009-.135-.088-.204-1.708-1.181-3.377-1.771-5.007-1.771-1.941 0-3.484.604-4.626 1.815-1.132 1.181-1.697 2.747-1.697 4.698 0 2.05.624 3.779 1.873 5.183C-3.693-.722-2.029 0 0 0" transform="translate(442.241 74.867)"/>
      <path style="fill:#7f8082;fill-opacity:1;fill-rule:nonzero;stroke:none" d="M0 0c-.098.029-.146.068-.146.117L-.629 2.46c0 .078-.04.137-.117.176-.488.224-1.04.336-1.654.336-1.054 0-1.782-.356-2.181-1.069a1.73 1.73 0 0 1-.221-.863c0-.908.723-1.654 2.167-2.239l1.258-.514C.819-2.61 1.917-3.83 1.917-5.372c0-1.337-.556-2.406-1.668-3.206-.995-.722-2.186-1.083-3.572-1.083-1.005 0-2.187.229-3.541.688-.099.02-.148.074-.148.16v3.471c0 .077.049.116.148.116h.922c.106 0 .161-.039.161-.116l.468-2.402c.009-.039.052-.097.13-.175a4.946 4.946 0 0 1 2.123-.483c1.718 0 2.577.721 2.577 2.167 0 .848-.439 1.482-1.318 1.902-.145.068-.415.191-.804.366l-1.347.542C-6.07-2.576-7.129-1.327-7.129.322c0 1.172.526 2.138 1.581 2.899.908.654 1.996.98 3.264.98 1.035 0 2.103-.18 3.206-.541.108-.019.162-.073.162-.161V.117C1.084.039 1.03 0 .922 0Z" transform="translate(455.871 70.666)"/>
      <path style="fill:#7f8082;fill-opacity:1;fill-rule:nonzero;stroke:none" d="M0 0c0 .097-.054.146-.16.146h-1.729c-.087 0-.131.043-.131.132v.147c0 .058.034.117.102.175l3.835 3.865c.089.088.167.132.234.132h.147c.088 0 .132-.054.132-.161V1.684c0-.098.049-.147.146-.147h3.983c.096 0 .145-.054.145-.161V.308c0-.109-.049-.162-.145-.162H2.576C2.479.146 2.43.097 2.43 0v-7.979c0-1.434.638-2.151 1.918-2.151.936 0 1.692.238 2.269.717a.156.156 0 0 0 .146.044.334.334 0 0 0 .103-.044l.38-.746c.02-.088-.01-.156-.089-.204-.77-.519-1.432-.87-1.99-1.055a7.213 7.213 0 0 0-2.269-.366c-.819 0-1.507.255-2.064.762C.278-10.516 0-9.857 0-9.047Z" transform="translate(468.343 72.79)"/>
      <path style="fill:#7f8082;fill-opacity:1;fill-rule:nonzero;stroke:none" d="M0 0c-1.298 0-2.259-.548-2.884-1.641-.498-.868-.746-2.001-.746-3.395 0-2.801.751-4.7 2.254-5.694.546-.362 1.205-.542 1.976-.542 2.411 0 3.616 1.693 3.616 5.08 0 1.668-.283 3.039-.849 4.113C2.645-.694 1.522 0 0 0m.381 1.302c2.107 0 3.738-.614 4.89-1.845 1.121-1.2 1.682-2.863 1.682-4.991 0-2.04-.604-3.713-1.815-5.022-1.249-1.336-2.883-2.005-4.904-2.005-2.088 0-3.713.624-4.875 1.874-1.141 1.21-1.713 2.865-1.713 4.962 0 2.07.601 3.748 1.801 5.037C-3.313.64-1.669 1.302.381 1.302" transform="translate(483.245 73.565)"/>
      <path style="fill:#7f8082;fill-opacity:1;fill-rule:nonzero;stroke:none" d="M0 0c1.044 0 1.757.59 2.138 1.771.135.429.204.981.204 1.654 0 2.45-.821 3.674-2.458 3.674-1.133 0-1.889-.611-2.271-1.83-.146-.467-.218-1.025-.218-1.668 0-1.241.283-2.187.848-2.84C-1.317.252-.732 0 0 0m-1.889-5.899c-.576-.099-1.078-.448-1.507-1.047-.429-.601-.644-1.202-.644-1.809 0-1.873 1.317-2.81 3.952-2.81 1.23 0 2.245.225 3.045.673.986.567 1.479 1.42 1.479 2.562 0 1.62-1.27 2.431-3.807 2.431zm-.205 4.947c-.703-.41-1.053-.863-1.053-1.361 0-.743.301-1.157.908-1.246a4.73 4.73 0 0 1 .687-.043H.776c1.308 0 2.278-.068 2.913-.206 1.093-.223 1.913-.692 2.459-1.403.34-.44.561-.972.659-1.597.039-.243.059-.463.059-.659 0-1.268-.455-2.351-1.362-3.249-.8-.791-1.854-1.366-3.162-1.727-.86-.235-1.801-.352-2.825-.352-1.512 0-2.787.234-3.821.703-1.385.624-2.079 1.605-2.079 2.943 0 .702.303 1.41.907 2.123.548.653 1.172 1.117 1.874 1.389a2.174 2.174 0 0 0-1.229.858 2.432 2.432 0 0 0-.468 1.456c0 1.005.736 1.951 2.211 2.839-1.416.888-2.123 2.201-2.123 3.937 0 1.426.517 2.607 1.551 3.544 1.006.917 2.224 1.375 3.66 1.375.762 0 1.473-.142 2.138-.424h4.376c.097 0 .146-.049.146-.146v-.761c0-.088-.049-.138-.146-.147l-2.65-.205c.761-.838 1.143-1.869 1.143-3.088 0-1.396-.501-2.555-1.501-3.477-1-.922-2.209-1.384-3.622-1.384-.742 0-1.402.104-1.978.308" transform="translate(498.161 66.495)"/>
      <path style="fill:#7f8082;fill-opacity:1;fill-rule:nonzero;stroke:none" d="M0 0c-1.563 0-2.572-.87-3.03-2.606a8.477 8.477 0 0 1-.263-1.522h6.118C2.912-1.376 1.971 0 0 0m-3.322-5.3c.039-1.63.419-2.928 1.141-3.893.829-1.103 2.025-1.656 3.585-1.656 1.25 0 2.421.342 3.515 1.026.038.039.072.049.102.029a.515.515 0 0 1 .073-.088l.425-.732c.019-.087-.01-.156-.089-.205-1.706-1.142-3.435-1.712-5.182-1.712-1.951 0-3.488.604-4.61 1.815-1.103 1.171-1.655 2.737-1.655 4.698 0 2.011.537 3.705 1.611 5.08C-3.235.575-1.675 1.331.277 1.331c1.728 0 3.04-.492 3.939-1.478.868-.957 1.303-2.303 1.303-4.041 0-.312-.02-.633-.06-.965 0-.097-.049-.147-.146-.147Z" transform="translate(512.405 73.536)"/>
      <path style="fill:#7f8082;fill-opacity:1;fill-rule:nonzero;stroke:none" d="M0 0c0 .097-.054.146-.16.146h-1.729c-.087 0-.131.043-.131.132v.147c0 .058.034.117.102.175l3.835 3.865c.089.088.167.132.234.132h.147c.088 0 .132-.054.132-.161V1.684c0-.098.049-.147.146-.147h3.983c.096 0 .145-.054.145-.161V.308c0-.109-.049-.162-.145-.162H2.576C2.479.146 2.43.097 2.43 0v-7.979c0-1.434.639-2.151 1.918-2.151.937 0 1.693.238 2.269.717a.157.157 0 0 0 .147.044.338.338 0 0 0 .102-.044l.38-.746c.02-.088-.01-.156-.088-.204-.77-.519-1.433-.87-1.991-1.055a7.213 7.213 0 0 0-2.269-.366c-.819 0-1.507.255-2.063.762C.278-10.516 0-9.857 0-9.047Z" transform="translate(521.495 72.79)"/>
      <path style="fill:#7f8082;fill-opacity:1;fill-rule:nonzero;stroke:none" d="M0 0c.059.02.107.029.146.029h.879c.097 0 .146-.049.146-.146v-9.149c1.571 1.083 3.108 1.625 4.611 1.625 2.586 0 3.88-1.449 3.88-4.347v-7.744c0-.099.049-.148.146-.148l1.948-.204c.097 0 .145-.054.145-.161v-.747c0-.097-.048-.146-.145-.146H5.183c-.098 0-.148.049-.148.146v.747c0 .107.05.161.148.161l1.887.204c.108 0 .161.049.161.148v6.865c0 2.156-.931 3.234-2.795 3.234-.703 0-1.507-.136-2.415-.409a3.42 3.42 0 0 1-.704-.278c-.097-.039-.146-.097-.146-.176v-9.236c0-.099.049-.148.146-.148l1.888-.204c.099 0 .148-.054.148-.161v-.747c0-.097-.049-.146-.148-.146h-6.718c-.097 0-.146.049-.146.146v.747c0 .107.049.161.146.161l2.109.204c.096 0 .145.049.145.148v17.756c0 .097-.049.146-.145.146l-2.343.234c-.099 0-.147.054-.147.161v.688c0 .099.039.147.118.147z" transform="translate(533.513 82.567)"/>
      <path style="fill:#7f8082;fill-opacity:1;fill-rule:nonzero;stroke:none" d="M0 0c-1.562 0-2.572-.87-3.029-2.606a8.397 8.397 0 0 1-.265-1.522h6.119C2.913-1.376 1.971 0 0 0m-3.323-5.3c.039-1.63.42-2.928 1.141-3.893.829-1.103 2.026-1.656 3.587-1.656 1.248 0 2.42.342 3.514 1.026.039.039.073.049.102.029a.576.576 0 0 1 .074-.088l.424-.732c.019-.087-.01-.156-.088-.205-1.708-1.142-3.435-1.712-5.182-1.712-1.952 0-3.489.604-4.612 1.815-1.103 1.171-1.653 2.737-1.653 4.698 0 2.011.536 3.705 1.61 5.08C-3.235.575-1.674 1.331.278 1.331c1.728 0 3.039-.492 3.939-1.478.868-.957 1.302-2.303 1.302-4.041 0-.312-.02-.633-.059-.965 0-.097-.049-.147-.146-.147Z" transform="translate(553.173 73.536)"/>
      <path style="fill:#7f8082;fill-opacity:1;fill-rule:nonzero;stroke:none" d="M0 0c.302 0 .678-.093 1.127-.277.448-.186.78-.385.995-.601.029-.019.054-.059.073-.117.02-.059.01-.109-.029-.147L.688-3.249c-.069-.099-.123-.147-.162-.147-.03 0-.054.01-.073.03-.439.438-.922.659-1.449.659-.653 0-1.23-.289-1.727-.863l-.88-1.026a.472.472 0 0 1-.116-.323v-7.113c0-.088.049-.138.146-.148l2.548-.204c.107-.01.161-.063.161-.161v-.747c0-.097-.054-.146-.161-.146h-7.364c-.107 0-.161.049-.161.146v.747c0 .107.054.161.161.161l2.094.204c.098 0 .147.049.147.148v9.895c0 .098-.049.147-.147.147l-2.152.249c-.108 0-.161.049-.161.146v.688c0 .097.039.146.117.146l3.601.6c.108.019.17.029.19.029h.836c.096 0 .145-.049.145-.145V-3.06l1.596 1.86C-1.44-.4-.732 0 0 0" transform="translate(569.363 74.867)"/>
  </g>
</svg>
